<svg xmlns="http://www.w3.org/2000/svg" width="860" height="180" viewBox="0 0 860 180">
<defs>
  <linearGradient id="abg" x1="0" y1="0" x2="0" y2="1">
    <stop offset="0%" stop-color="#0d1117"/>
    <stop offset="100%" stop-color="#161b22"/>
  </linearGradient>
  <linearGradient id="aline" x1="0" y1="0" x2="1" y2="0">
    <stop offset="0%" stop-color="#9ece6a" stop-opacity="0.7"/>
    <stop offset="100%" stop-color="#7dcfff" stop-opacity="0.7"/>
  </linearGradient>
</defs>
<style>text{font-family:'Segoe UI', system-ui, -apple-system, sans-serif}</style>
<rect width="860" height="180" rx="12" fill="url(#abg)" stroke="#30363d"/>
<rect x="10" y="52" width="840" height="90" rx="4" fill="#1a1b2e" opacity="0.35"/>
<rect x="0" y="142" width="860" height="1" fill="url(#aline)" opacity="0.4"/>
<text x="14" y="24" font-size="14" font-weight="700" fill="#c0caf5">Activité — 30 derniers jours</text>
<text x="14" y="41" font-size="11.5" fill="#565f89">
  <tspan fill="#9ece6a" font-weight="600">264</tspan> contributions au total  ·  
  <tspan fill="#7aa2f7" font-weight="600">224</tspan> commits  ·  
  <tspan fill="#bb9af7" font-weight="600">26</tspan> pull requests  ·  
  <tspan fill="#f7768e" font-weight="600">0</tspan> issues
</text>
<rect x="12.8" y="140.0" width="22.4" height="2.0" fill="#1a2030" rx="2"/><rect x="40.8" y="140.0" width="22.4" height="2.0" fill="#1a2030" rx="2"/><rect x="68.8" y="140.0" width="22.4" height="2.0" fill="#1a2030" rx="2"/><rect x="96.8" y="140.0" width="22.4" height="2.0" fill="#1a2030" rx="2"/><rect x="124.8" y="140.0" width="22.4" height="2.0" fill="#1a2030" rx="2"/><rect x="152.8" y="140.0" width="22.4" height="2.0" fill="#1a2030" rx="2"/><rect x="180.8" y="140.0" width="22.4" height="2.0" fill="#1a2030" rx="2"/><rect x="208.8" y="140.0" width="22.4" height="2.0" fill="#1a2030" rx="2"/><rect x="236.8" y="130.8" width="22.4" height="11.2" fill="#0e4429" rx="2"/><rect x="264.8" y="103.8" width="22.4" height="38.2" fill="#006d32" rx="2"/><rect x="292.8" y="133.0" width="22.4" height="9.0" fill="#0e4429" rx="2"/><rect x="320.8" y="140.0" width="22.4" height="2.0" fill="#1a2030" rx="2"/><rect x="348.8" y="126.2" width="22.4" height="15.7" fill="#0e4429" rx="2"/><rect x="376.8" y="128.5" width="22.4" height="13.5" fill="#0e4429" rx="2"/><rect x="404.8" y="133.0" width="22.4" height="9.0" fill="#0e4429" rx="2"/><rect x="432.8" y="126.2" width="22.4" height="15.7" fill="#0e4429" rx="2"/><rect x="460.8" y="135.2" width="22.4" height="6.8" fill="#0e4429" rx="2"/><rect x="488.8" y="140.0" width="22.4" height="2.0" fill="#1a2030" rx="2"/><rect x="516.8" y="140.0" width="22.4" height="2.0" fill="#1a2030" rx="2"/><rect x="544.8" y="65.5" width="22.4" height="76.5" fill="#39d353" rx="2"/><rect x="572.8" y="140.0" width="22.4" height="2.0" fill="#1a2030" rx="2"/><rect x="600.8" y="140.0" width="22.4" height="2.0" fill="#1a2030" rx="2"/><rect x="628.8" y="140.0" width="22.4" height="2.0" fill="#1a2030" rx="2"/><rect x="656.8" y="140.0" width="22.4" height="2.0" fill="#1a2030" rx="2"/><rect x="684.8" y="140.0" width="22.4" height="2.0" fill="#1a2030" rx="2"/><rect x="712.8" y="140.0" width="22.4" height="2.0" fill="#1a2030" rx="2"/><rect x="740.8" y="140.0" width="22.4" height="2.0" fill="#1a2030" rx="2"/><rect x="768.8" y="140.0" width="22.4" height="2.0" fill="#1a2030" rx="2"/><rect x="796.8" y="103.8" width="22.4" height="38.2" fill="#006d32" rx="2"/><rect x="824.8" y="52.0" width="22.4" height="90.0" fill="#39d353" rx="2"/>
<text x="24.0" y="158" text-anchor="middle" font-size="8.5" fill="#565f89">06-29</text><text x="164.0" y="158" text-anchor="middle" font-size="8.5" fill="#565f89">07-04</text><text x="304.0" y="158" text-anchor="middle" font-size="8.5" fill="#565f89">07-09</text><text x="444.0" y="158" text-anchor="middle" font-size="8.5" fill="#565f89">07-14</text><text x="584.0" y="158" text-anchor="middle" font-size="8.5" fill="#565f89">07-19</text><text x="724.0" y="158" text-anchor="middle" font-size="8.5" fill="#565f89">07-24</text><text x="836.0" y="158" text-anchor="middle" font-size="8.5" fill="#565f89">07-28</text>
</svg>