<svg xmlns="http://www.w3.org/2000/svg" width="1060" height="240" viewBox="0 0 1060 240">
<defs>
  <linearGradient id="bg" x1="0" y1="0" x2="1" y2="1">
    <stop offset="0%" stop-color="#161b22"/>
    <stop offset="100%" stop-color="#0d1117"/>
  </linearGradient>
</defs>
<style>text{font-family:'Segoe UI', system-ui, -apple-system, sans-serif}</style>
<rect width="1060" height="240" rx="10" fill="url(#bg)" stroke="#30363d"/>
<text x="40" y="40" font-size="20" font-weight="700" fill="#c9d1d9">Activité des 30 derniers jours</text>
<text x="40" y="60" font-size="13" fill="#8b949e"><tspan fill="#58a6ff" font-weight="700">460</tspan> contributions le mois dernier</text>
<rect x="40" y="90" width="980" height="105" fill="#000000" opacity="0.1" rx="5"/>
<line x1="40" y1="195" x2="1020" y2="195" stroke="#30363d" stroke-width="2"/>
<rect x="44.1" y="191.0" width="24.5" height="4.0" fill="#161b22" rx="3"/><rect x="76.7" y="161.2" width="24.5" height="33.8" fill="#006d32" rx="3"/><rect x="109.4" y="90.0" width="24.5" height="105.0" fill="#39d353" rx="3"/><rect x="142.1" y="183.8" width="24.5" height="11.2" fill="#0e4429" rx="3"/><rect x="174.8" y="108.8" width="24.5" height="86.2" fill="#39d353" rx="3"/><rect x="207.4" y="125.6" width="24.5" height="69.4" fill="#26a641" rx="3"/><rect x="240.1" y="181.9" width="24.5" height="13.1" fill="#0e4429" rx="3"/><rect x="272.7" y="191.0" width="24.5" height="4.0" fill="#0e4429" rx="3"/><rect x="305.4" y="191.0" width="24.5" height="4.0" fill="#0e4429" rx="3"/><rect x="338.1" y="191.0" width="24.5" height="4.0" fill="#161b22" rx="3"/><rect x="370.7" y="191.0" width="24.5" height="4.0" fill="#0e4429" rx="3"/><rect x="403.4" y="174.4" width="24.5" height="20.6" fill="#0e4429" rx="3"/><rect x="436.1" y="114.4" width="24.5" height="80.6" fill="#39d353" rx="3"/><rect x="468.7" y="191.0" width="24.5" height="4.0" fill="#161b22" rx="3"/><rect x="501.4" y="191.0" width="24.5" height="4.0" fill="#161b22" rx="3"/><rect x="534.1" y="178.1" width="24.5" height="16.9" fill="#0e4429" rx="3"/><rect x="566.8" y="90.0" width="24.5" height="105.0" fill="#39d353" rx="3"/><rect x="599.4" y="146.2" width="24.5" height="48.8" fill="#006d32" rx="3"/><rect x="632.1" y="183.8" width="24.5" height="11.2" fill="#0e4429" rx="3"/><rect x="664.8" y="101.2" width="24.5" height="93.8" fill="#39d353" rx="3"/><rect x="697.4" y="161.2" width="24.5" height="33.8" fill="#006d32" rx="3"/><rect x="730.1" y="183.8" width="24.5" height="11.2" fill="#0e4429" rx="3"/><rect x="762.8" y="191.0" width="24.5" height="4.0" fill="#0e4429" rx="3"/><rect x="795.4" y="191.0" width="24.5" height="4.0" fill="#0e4429" rx="3"/><rect x="828.1" y="174.4" width="24.5" height="20.6" fill="#0e4429" rx="3"/><rect x="860.8" y="187.5" width="24.5" height="7.5" fill="#0e4429" rx="3"/><rect x="893.4" y="155.6" width="24.5" height="39.4" fill="#006d32" rx="3"/><rect x="926.1" y="157.5" width="24.5" height="37.5" fill="#006d32" rx="3"/><rect x="958.8" y="191.0" width="24.5" height="4.0" fill="#161b22" rx="3"/><rect x="991.4" y="191.0" width="24.5" height="4.0" fill="#161b22" rx="3"/>
<text x="56.3" y="215" text-anchor="middle" font-size="11" fill="#8b949e">26 Jul</text><text x="154.3" y="215" text-anchor="middle" font-size="11" fill="#8b949e">29 Jul</text><text x="252.3" y="215" text-anchor="middle" font-size="11" fill="#8b949e">01 Aug</text><text x="350.3" y="215" text-anchor="middle" font-size="11" fill="#8b949e">04 Aug</text><text x="448.3" y="215" text-anchor="middle" font-size="11" fill="#8b949e">07 Aug</text><text x="546.3" y="215" text-anchor="middle" font-size="11" fill="#8b949e">10 Aug</text><text x="644.3" y="215" text-anchor="middle" font-size="11" fill="#8b949e">13 Aug</text><text x="742.3" y="215" text-anchor="middle" font-size="11" fill="#8b949e">16 Aug</text><text x="840.3" y="215" text-anchor="middle" font-size="11" fill="#8b949e">19 Aug</text><text x="938.3" y="215" text-anchor="middle" font-size="11" fill="#8b949e">22 Aug</text><text x="1003.7" y="215" text-anchor="middle" font-size="11" fill="#8b949e">24 Aug</text>
</svg>