<svg xmlns="http://www.w3.org/2000/svg" width="890" height="220" viewBox="0 0 890 220">
<defs>
  <linearGradient id="bg" x1="0" y1="0" x2="1" y2="1">
    <stop offset="0%" stop-color="#161b22"/>
    <stop offset="100%" stop-color="#0d1117"/>
  </linearGradient>
</defs>
<style>text{font-family:'Segoe UI', system-ui, -apple-system, sans-serif}</style>
<rect width="890" height="220" rx="10" fill="url(#bg)" stroke="#30363d"/>
<text x="40" y="35" font-size="20" font-weight="700" fill="#c9d1d9">Activité des 30 derniers jours</text>
<text x="40" y="52" font-size="13" fill="#8b949e"><tspan fill="#58a6ff" font-weight="700">149</tspan> contributions le mois dernier</text>
<rect x="40" y="70" width="810" height="105" fill="#000000" opacity="0.1" rx="5"/>
<line x1="40" y1="175" x2="850" y2="175" stroke="#30363d" stroke-width="2"/>
<rect x="43.4" y="171.0" width="20.2" height="4.0" fill="#161b22" rx="3"/><rect x="70.4" y="171.0" width="20.2" height="4.0" fill="#161b22" rx="3"/><rect x="97.4" y="171.0" width="20.2" height="4.0" fill="#161b22" rx="3"/><rect x="124.4" y="171.0" width="20.2" height="4.0" fill="#161b22" rx="3"/><rect x="151.4" y="171.0" width="20.2" height="4.0" fill="#161b22" rx="3"/><rect x="178.4" y="171.0" width="20.2" height="4.0" fill="#161b22" rx="3"/><rect x="205.4" y="171.0" width="20.2" height="4.0" fill="#161b22" rx="3"/><rect x="232.4" y="171.0" width="20.2" height="4.0" fill="#161b22" rx="3"/><rect x="259.4" y="163.3" width="20.2" height="11.7" fill="#0e4429" rx="3"/><rect x="286.4" y="135.3" width="20.2" height="39.7" fill="#006d32" rx="3"/><rect x="313.4" y="165.7" width="20.2" height="9.3" fill="#0e4429" rx="3"/><rect x="340.4" y="171.0" width="20.2" height="4.0" fill="#161b22" rx="3"/><rect x="367.4" y="158.7" width="20.2" height="16.3" fill="#0e4429" rx="3"/><rect x="394.4" y="161.0" width="20.2" height="14.0" fill="#0e4429" rx="3"/><rect x="421.4" y="165.7" width="20.2" height="9.3" fill="#0e4429" rx="3"/><rect x="448.4" y="158.7" width="20.2" height="16.3" fill="#0e4429" rx="3"/><rect x="475.4" y="168.0" width="20.2" height="7.0" fill="#0e4429" rx="3"/><rect x="502.4" y="171.0" width="20.2" height="4.0" fill="#161b22" rx="3"/><rect x="529.4" y="171.0" width="20.2" height="4.0" fill="#161b22" rx="3"/><rect x="556.4" y="95.7" width="20.2" height="79.3" fill="#39d353" rx="3"/><rect x="583.4" y="171.0" width="20.2" height="4.0" fill="#161b22" rx="3"/><rect x="610.4" y="171.0" width="20.2" height="4.0" fill="#161b22" rx="3"/><rect x="637.4" y="171.0" width="20.2" height="4.0" fill="#161b22" rx="3"/><rect x="664.4" y="171.0" width="20.2" height="4.0" fill="#161b22" rx="3"/><rect x="691.4" y="171.0" width="20.2" height="4.0" fill="#161b22" rx="3"/><rect x="718.4" y="171.0" width="20.2" height="4.0" fill="#161b22" rx="3"/><rect x="745.4" y="171.0" width="20.2" height="4.0" fill="#161b22" rx="3"/><rect x="772.4" y="171.0" width="20.2" height="4.0" fill="#161b22" rx="3"/><rect x="799.4" y="135.3" width="20.2" height="39.7" fill="#006d32" rx="3"/><rect x="826.4" y="70.0" width="20.2" height="105.0" fill="#39d353" rx="3"/>
<text x="53.5" y="195" text-anchor="middle" font-size="11" fill="#8b949e">29 Jun</text><text x="134.5" y="195" text-anchor="middle" font-size="11" fill="#8b949e">02 Jul</text><text x="215.5" y="195" text-anchor="middle" font-size="11" fill="#8b949e">05 Jul</text><text x="296.5" y="195" text-anchor="middle" font-size="11" fill="#8b949e">08 Jul</text><text x="377.5" y="195" text-anchor="middle" font-size="11" fill="#8b949e">11 Jul</text><text x="458.5" y="195" text-anchor="middle" font-size="11" fill="#8b949e">14 Jul</text><text x="539.5" y="195" text-anchor="middle" font-size="11" fill="#8b949e">17 Jul</text><text x="620.5" y="195" text-anchor="middle" font-size="11" fill="#8b949e">20 Jul</text><text x="701.5" y="195" text-anchor="middle" font-size="11" fill="#8b949e">23 Jul</text><text x="782.5" y="195" text-anchor="middle" font-size="11" fill="#8b949e">26 Jul</text><text x="836.5" y="195" text-anchor="middle" font-size="11" fill="#8b949e">28 Jul</text>
</svg>