<svg xmlns="http://www.w3.org/2000/svg" width="890" height="220" viewBox="0 0 890 220">
<defs>
  <linearGradient id="bg" x1="0" y1="0" x2="1" y2="1">
    <stop offset="0%" stop-color="#161b22"/>
    <stop offset="100%" stop-color="#0d1117"/>
  </linearGradient>
</defs>
<style>text{font-family:'Segoe UI', system-ui, -apple-system, sans-serif}</style>
<rect width="890" height="220" rx="10" fill="url(#bg)" stroke="#30363d"/>
<text x="40" y="35" font-size="20" font-weight="700" fill="#c9d1d9">Contributions</text>
<text x="40" y="52" font-size="13" fill="#8b949e"><tspan fill="#3fb950" font-weight="700">267</tspan> contributions sur la dernière année</text>
<text x="40" y="62" font-size="12" fill="#c9d1d9">Aug</text><text x="58" y="62" font-size="12" fill="#c9d1d9">Aug</text><text x="130" y="62" font-size="12" fill="#c9d1d9">Sep</text><text x="148" y="62" font-size="12" fill="#c9d1d9">Sep</text><text x="202" y="62" font-size="12" fill="#c9d1d9">Oct</text><text x="220" y="62" font-size="12" fill="#c9d1d9">Oct</text><text x="274" y="62" font-size="12" fill="#c9d1d9">Nov</text><text x="292" y="62" font-size="12" fill="#c9d1d9">Nov</text><text x="364" y="62" font-size="12" fill="#c9d1d9">Dec</text><text x="382" y="62" font-size="12" fill="#c9d1d9">Dec</text><text x="436" y="62" font-size="12" fill="#c9d1d9">Jan</text><text x="454" y="62" font-size="12" fill="#c9d1d9">Jan</text><text x="526" y="62" font-size="12" fill="#c9d1d9">Feb</text><text x="598" y="62" font-size="12" fill="#c9d1d9">Mar</text><text x="670" y="62" font-size="12" fill="#c9d1d9">Apr</text><text x="688" y="62" font-size="12" fill="#c9d1d9">Apr</text><text x="742" y="62" font-size="12" fill="#c9d1d9">May</text><text x="760" y="62" font-size="12" fill="#c9d1d9">May</text><text x="832" y="62" font-size="12" fill="#c9d1d9">Jun</text><text x="850" y="62" font-size="12" fill="#c9d1d9">Jun</text><text x="904" y="62" font-size="12" fill="#c9d1d9">Jul</text><text x="922" y="62" font-size="12" fill="#c9d1d9">Jul</text>
<text x="30" y="82" font-size="11" fill="#8b949e" text-anchor="end">Lun</text><text x="30" y="100" font-size="11" fill="#8b949e" text-anchor="end">Mar</text><text x="30" y="118" font-size="11" fill="#8b949e" text-anchor="end">Mer</text><text x="30" y="136" font-size="11" fill="#8b949e" text-anchor="end">Jeu</text><text x="30" y="154" font-size="11" fill="#8b949e" text-anchor="end">Ven</text><text x="30" y="172" font-size="11" fill="#8b949e" text-anchor="end">Sam</text><text x="30" y="190" font-size="11" fill="#8b949e" text-anchor="end">Dim</text>
<rect x="40" y="178" width="14" height="14" rx="3" fill="#161b22"/><rect x="40" y="70" width="14" height="14" rx="3" fill="#161b22"/><rect x="40" y="88" width="14" height="14" rx="3" fill="#161b22"/><rect x="40" y="106" width="14" height="14" rx="3" fill="#161b22"/><rect x="40" y="124" width="14" height="14" rx="3" fill="#161b22"/><rect x="40" y="142" width="14" height="14" rx="3" fill="#161b22"/><rect x="40" y="160" width="14" height="14" rx="3" fill="#161b22"/><rect x="58" y="178" width="14" height="14" rx="3" fill="#161b22"/><rect x="58" y="70" width="14" height="14" rx="3" fill="#161b22"/><rect x="58" y="88" width="14" height="14" rx="3" fill="#161b22"/><rect x="58" y="106" width="14" height="14" rx="3" fill="#0e4429"/><rect x="58" y="124" width="14" height="14" rx="3" fill="#161b22"/><rect x="58" y="142" width="14" height="14" rx="3" fill="#161b22"/><rect x="58" y="160" width="14" height="14" rx="3" fill="#161b22"/><rect x="76" y="178" width="14" height="14" rx="3" fill="#161b22"/><rect x="76" y="70" width="14" height="14" rx="3" fill="#161b22"/><rect x="76" y="88" width="14" height="14" rx="3" fill="#161b22"/><rect x="76" y="106" width="14" height="14" rx="3" fill="#161b22"/><rect x="76" y="124" width="14" height="14" rx="3" fill="#161b22"/><rect x="76" y="142" width="14" height="14" rx="3" fill="#161b22"/><rect x="76" y="160" width="14" height="14" rx="3" fill="#161b22"/><rect x="94" y="178" width="14" height="14" rx="3" fill="#161b22"/><rect x="94" y="70" width="14" height="14" rx="3" fill="#161b22"/><rect x="94" y="88" width="14" height="14" rx="3" fill="#161b22"/><rect x="94" y="106" width="14" height="14" rx="3" fill="#161b22"/><rect x="94" y="124" width="14" height="14" rx="3" fill="#161b22"/><rect x="94" y="142" width="14" height="14" rx="3" fill="#161b22"/><rect x="94" y="160" width="14" height="14" rx="3" fill="#161b22"/><rect x="112" y="178" width="14" height="14" rx="3" fill="#161b22"/><rect x="112" y="70" width="14" height="14" rx="3" fill="#161b22"/><rect x="112" y="88" width="14" height="14" rx="3" fill="#161b22"/><rect x="112" y="106" width="14" height="14" rx="3" fill="#161b22"/><rect x="112" y="124" width="14" height="14" rx="3" fill="#161b22"/><rect x="112" y="142" width="14" height="14" rx="3" fill="#161b22"/><rect x="112" y="160" width="14" height="14" rx="3" fill="#161b22"/><rect x="130" y="178" width="14" height="14" rx="3" fill="#161b22"/><rect x="130" y="70" width="14" height="14" rx="3" fill="#161b22"/><rect x="130" y="88" width="14" height="14" rx="3" fill="#161b22"/><rect x="130" y="106" width="14" height="14" rx="3" fill="#161b22"/><rect x="130" y="124" width="14" height="14" rx="3" fill="#161b22"/><rect x="130" y="142" width="14" height="14" rx="3" fill="#161b22"/><rect x="130" y="160" width="14" height="14" rx="3" fill="#161b22"/><rect x="148" y="178" width="14" height="14" rx="3" fill="#161b22"/><rect x="148" y="70" width="14" height="14" rx="3" fill="#161b22"/><rect x="148" y="88" width="14" height="14" rx="3" fill="#161b22"/><rect x="148" y="106" width="14" height="14" rx="3" fill="#161b22"/><rect x="148" y="124" width="14" height="14" rx="3" fill="#161b22"/><rect x="148" y="142" width="14" height="14" rx="3" fill="#161b22"/><rect x="148" y="160" width="14" height="14" rx="3" fill="#161b22"/><rect x="166" y="178" width="14" height="14" rx="3" fill="#161b22"/><rect x="166" y="70" width="14" height="14" rx="3" fill="#161b22"/><rect x="166" y="88" width="14" height="14" rx="3" fill="#161b22"/><rect x="166" y="106" width="14" height="14" rx="3" fill="#161b22"/><rect x="166" y="124" width="14" height="14" rx="3" fill="#161b22"/><rect x="166" y="142" width="14" height="14" rx="3" fill="#161b22"/><rect x="166" y="160" width="14" height="14" rx="3" fill="#161b22"/><rect x="184" y="178" width="14" height="14" rx="3" fill="#161b22"/><rect x="184" y="70" width="14" height="14" rx="3" fill="#161b22"/><rect x="184" y="88" width="14" height="14" rx="3" fill="#161b22"/><rect x="184" y="106" width="14" height="14" rx="3" fill="#161b22"/><rect x="184" y="124" width="14" height="14" rx="3" fill="#161b22"/><rect x="184" y="142" width="14" height="14" rx="3" fill="#161b22"/><rect x="184" y="160" width="14" height="14" rx="3" fill="#161b22"/><rect x="202" y="178" width="14" height="14" rx="3" fill="#161b22"/><rect x="202" y="70" width="14" height="14" rx="3" fill="#0e4429"/><rect x="202" y="88" width="14" height="14" rx="3" fill="#161b22"/><rect x="202" y="106" width="14" height="14" rx="3" fill="#161b22"/><rect x="202" y="124" width="14" height="14" rx="3" fill="#161b22"/><rect x="202" y="142" width="14" height="14" rx="3" fill="#161b22"/><rect x="202" y="160" width="14" height="14" rx="3" fill="#161b22"/><rect x="220" y="178" width="14" height="14" rx="3" fill="#161b22"/><rect x="220" y="70" width="14" height="14" rx="3" fill="#0e4429"/><rect x="220" y="88" width="14" height="14" rx="3" fill="#0e4429"/><rect x="220" y="106" width="14" height="14" rx="3" fill="#0e4429"/><rect x="220" y="124" width="14" height="14" rx="3" fill="#0e4429"/><rect x="220" y="142" width="14" height="14" rx="3" fill="#0e4429"/><rect x="220" y="160" width="14" height="14" rx="3" fill="#0e4429"/><rect x="238" y="178" width="14" height="14" rx="3" fill="#161b22"/><rect x="238" y="70" width="14" height="14" rx="3" fill="#161b22"/><rect x="238" y="88" width="14" height="14" rx="3" fill="#161b22"/><rect x="238" y="106" width="14" height="14" rx="3" fill="#161b22"/><rect x="238" y="124" width="14" height="14" rx="3" fill="#161b22"/><rect x="238" y="142" width="14" height="14" rx="3" fill="#161b22"/><rect x="238" y="160" width="14" height="14" rx="3" fill="#161b22"/><rect x="256" y="178" width="14" height="14" rx="3" fill="#161b22"/><rect x="256" y="70" width="14" height="14" rx="3" fill="#161b22"/><rect x="256" y="88" width="14" height="14" rx="3" fill="#161b22"/><rect x="256" y="106" width="14" height="14" rx="3" fill="#161b22"/><rect x="256" y="124" width="14" height="14" rx="3" fill="#161b22"/><rect x="256" y="142" width="14" height="14" rx="3" fill="#161b22"/><rect x="256" y="160" width="14" height="14" rx="3" fill="#161b22"/><rect x="274" y="178" width="14" height="14" rx="3" fill="#161b22"/><rect x="274" y="70" width="14" height="14" rx="3" fill="#161b22"/><rect x="274" y="88" width="14" height="14" rx="3" fill="#161b22"/><rect x="274" y="106" width="14" height="14" rx="3" fill="#161b22"/><rect x="274" y="124" width="14" height="14" rx="3" fill="#161b22"/><rect x="274" y="142" width="14" height="14" rx="3" fill="#161b22"/><rect x="274" y="160" width="14" height="14" rx="3" fill="#161b22"/><rect x="292" y="178" width="14" height="14" rx="3" fill="#161b22"/><rect x="292" y="70" width="14" height="14" rx="3" fill="#161b22"/><rect x="292" y="88" width="14" height="14" rx="3" fill="#161b22"/><rect x="292" y="106" width="14" height="14" rx="3" fill="#161b22"/><rect x="292" y="124" width="14" height="14" rx="3" fill="#161b22"/><rect x="292" y="142" width="14" height="14" rx="3" fill="#161b22"/><rect x="292" y="160" width="14" height="14" rx="3" fill="#161b22"/><rect x="310" y="178" width="14" height="14" rx="3" fill="#161b22"/><rect x="310" y="70" width="14" height="14" rx="3" fill="#0e4429"/><rect x="310" y="88" width="14" height="14" rx="3" fill="#161b22"/><rect x="310" y="106" width="14" height="14" rx="3" fill="#161b22"/><rect x="310" y="124" width="14" height="14" rx="3" fill="#161b22"/><rect x="310" y="142" width="14" height="14" rx="3" fill="#161b22"/><rect x="310" y="160" width="14" height="14" rx="3" fill="#161b22"/><rect x="328" y="178" width="14" height="14" rx="3" fill="#161b22"/><rect x="328" y="70" width="14" height="14" rx="3" fill="#161b22"/><rect x="328" y="88" width="14" height="14" rx="3" fill="#161b22"/><rect x="328" y="106" width="14" height="14" rx="3" fill="#161b22"/><rect x="328" y="124" width="14" height="14" rx="3" fill="#161b22"/><rect x="328" y="142" width="14" height="14" rx="3" fill="#161b22"/><rect x="328" y="160" width="14" height="14" rx="3" fill="#161b22"/><rect x="346" y="178" width="14" height="14" rx="3" fill="#161b22"/><rect x="346" y="70" width="14" height="14" rx="3" fill="#161b22"/><rect x="346" y="88" width="14" height="14" rx="3" fill="#161b22"/><rect x="346" y="106" width="14" height="14" rx="3" fill="#161b22"/><rect x="346" y="124" width="14" height="14" rx="3" fill="#161b22"/><rect x="346" y="142" width="14" height="14" rx="3" fill="#161b22"/><rect x="346" y="160" width="14" height="14" rx="3" fill="#161b22"/><rect x="364" y="178" width="14" height="14" rx="3" fill="#161b22"/><rect x="364" y="70" width="14" height="14" rx="3" fill="#161b22"/><rect x="364" y="88" width="14" height="14" rx="3" fill="#161b22"/><rect x="364" y="106" width="14" height="14" rx="3" fill="#161b22"/><rect x="364" y="124" width="14" height="14" rx="3" fill="#161b22"/><rect x="364" y="142" width="14" height="14" rx="3" fill="#161b22"/><rect x="364" y="160" width="14" height="14" rx="3" fill="#161b22"/><rect x="382" y="178" width="14" height="14" rx="3" fill="#161b22"/><rect x="382" y="70" width="14" height="14" rx="3" fill="#161b22"/><rect x="382" y="88" width="14" height="14" rx="3" fill="#161b22"/><rect x="382" y="106" width="14" height="14" rx="3" fill="#161b22"/><rect x="382" y="124" width="14" height="14" rx="3" fill="#161b22"/><rect x="382" y="142" width="14" height="14" rx="3" fill="#161b22"/><rect x="382" y="160" width="14" height="14" rx="3" fill="#161b22"/><rect x="400" y="178" width="14" height="14" rx="3" fill="#161b22"/><rect x="400" y="70" width="14" height="14" rx="3" fill="#161b22"/><rect x="400" y="88" width="14" height="14" rx="3" fill="#161b22"/><rect x="400" y="106" width="14" height="14" rx="3" fill="#161b22"/><rect x="400" y="124" width="14" height="14" rx="3" fill="#161b22"/><rect x="400" y="142" width="14" height="14" rx="3" fill="#161b22"/><rect x="400" y="160" width="14" height="14" rx="3" fill="#161b22"/><rect x="418" y="178" width="14" height="14" rx="3" fill="#161b22"/><rect x="418" y="70" width="14" height="14" rx="3" fill="#161b22"/><rect x="418" y="88" width="14" height="14" rx="3" fill="#161b22"/><rect x="418" y="106" width="14" height="14" rx="3" fill="#161b22"/><rect x="418" y="124" width="14" height="14" rx="3" fill="#161b22"/><rect x="418" y="142" width="14" height="14" rx="3" fill="#161b22"/><rect x="418" y="160" width="14" height="14" rx="3" fill="#161b22"/><rect x="436" y="178" width="14" height="14" rx="3" fill="#161b22"/><rect x="436" y="70" width="14" height="14" rx="3" fill="#161b22"/><rect x="436" y="88" width="14" height="14" rx="3" fill="#161b22"/><rect x="436" y="106" width="14" height="14" rx="3" fill="#161b22"/><rect x="436" y="124" width="14" height="14" rx="3" fill="#161b22"/><rect x="436" y="142" width="14" height="14" rx="3" fill="#161b22"/><rect x="436" y="160" width="14" height="14" rx="3" fill="#161b22"/><rect x="454" y="178" width="14" height="14" rx="3" fill="#161b22"/><rect x="454" y="70" width="14" height="14" rx="3" fill="#161b22"/><rect x="454" y="88" width="14" height="14" rx="3" fill="#161b22"/><rect x="454" y="106" width="14" height="14" rx="3" fill="#161b22"/><rect x="454" y="124" width="14" height="14" rx="3" fill="#161b22"/><rect x="454" y="142" width="14" height="14" rx="3" fill="#161b22"/><rect x="454" y="160" width="14" height="14" rx="3" fill="#161b22"/><rect x="472" y="178" width="14" height="14" rx="3" fill="#161b22"/><rect x="472" y="70" width="14" height="14" rx="3" fill="#161b22"/><rect x="472" y="88" width="14" height="14" rx="3" fill="#161b22"/><rect x="472" y="106" width="14" height="14" rx="3" fill="#161b22"/><rect x="472" y="124" width="14" height="14" rx="3" fill="#161b22"/><rect x="472" y="142" width="14" height="14" rx="3" fill="#161b22"/><rect x="472" y="160" width="14" height="14" rx="3" fill="#161b22"/><rect x="490" y="178" width="14" height="14" rx="3" fill="#161b22"/><rect x="490" y="70" width="14" height="14" rx="3" fill="#161b22"/><rect x="490" y="88" width="14" height="14" rx="3" fill="#161b22"/><rect x="490" y="106" width="14" height="14" rx="3" fill="#161b22"/><rect x="490" y="124" width="14" height="14" rx="3" fill="#161b22"/><rect x="490" y="142" width="14" height="14" rx="3" fill="#161b22"/><rect x="490" y="160" width="14" height="14" rx="3" fill="#161b22"/><rect x="508" y="178" width="14" height="14" rx="3" fill="#161b22"/><rect x="508" y="70" width="14" height="14" rx="3" fill="#161b22"/><rect x="508" y="88" width="14" height="14" rx="3" fill="#161b22"/><rect x="508" y="106" width="14" height="14" rx="3" fill="#161b22"/><rect x="508" y="124" width="14" height="14" rx="3" fill="#161b22"/><rect x="508" y="142" width="14" height="14" rx="3" fill="#161b22"/><rect x="508" y="160" width="14" height="14" rx="3" fill="#161b22"/><rect x="526" y="178" width="14" height="14" rx="3" fill="#161b22"/><rect x="526" y="70" width="14" height="14" rx="3" fill="#161b22"/><rect x="526" y="88" width="14" height="14" rx="3" fill="#161b22"/><rect x="526" y="106" width="14" height="14" rx="3" fill="#161b22"/><rect x="526" y="124" width="14" height="14" rx="3" fill="#161b22"/><rect x="526" y="142" width="14" height="14" rx="3" fill="#161b22"/><rect x="526" y="160" width="14" height="14" rx="3" fill="#161b22"/><rect x="544" y="178" width="14" height="14" rx="3" fill="#161b22"/><rect x="544" y="70" width="14" height="14" rx="3" fill="#161b22"/><rect x="544" y="88" width="14" height="14" rx="3" fill="#161b22"/><rect x="544" y="106" width="14" height="14" rx="3" fill="#161b22"/><rect x="544" y="124" width="14" height="14" rx="3" fill="#161b22"/><rect x="544" y="142" width="14" height="14" rx="3" fill="#161b22"/><rect x="544" y="160" width="14" height="14" rx="3" fill="#0e4429"/><rect x="562" y="178" width="14" height="14" rx="3" fill="#161b22"/><rect x="562" y="70" width="14" height="14" rx="3" fill="#161b22"/><rect x="562" y="88" width="14" height="14" rx="3" fill="#161b22"/><rect x="562" y="106" width="14" height="14" rx="3" fill="#161b22"/><rect x="562" y="124" width="14" height="14" rx="3" fill="#161b22"/><rect x="562" y="142" width="14" height="14" rx="3" fill="#161b22"/><rect x="562" y="160" width="14" height="14" rx="3" fill="#161b22"/><rect x="580" y="178" width="14" height="14" rx="3" fill="#161b22"/><rect x="580" y="70" width="14" height="14" rx="3" fill="#161b22"/><rect x="580" y="88" width="14" height="14" rx="3" fill="#161b22"/><rect x="580" y="106" width="14" height="14" rx="3" fill="#161b22"/><rect x="580" y="124" width="14" height="14" rx="3" fill="#161b22"/><rect x="580" y="142" width="14" height="14" rx="3" fill="#161b22"/><rect x="580" y="160" width="14" height="14" rx="3" fill="#161b22"/><rect x="598" y="178" width="14" height="14" rx="3" fill="#161b22"/><rect x="598" y="70" width="14" height="14" rx="3" fill="#161b22"/><rect x="598" y="88" width="14" height="14" rx="3" fill="#161b22"/><rect x="598" y="106" width="14" height="14" rx="3" fill="#161b22"/><rect x="598" y="124" width="14" height="14" rx="3" fill="#161b22"/><rect x="598" y="142" width="14" height="14" rx="3" fill="#161b22"/><rect x="598" y="160" width="14" height="14" rx="3" fill="#161b22"/><rect x="616" y="178" width="14" height="14" rx="3" fill="#161b22"/><rect x="616" y="70" width="14" height="14" rx="3" fill="#161b22"/><rect x="616" y="88" width="14" height="14" rx="3" fill="#161b22"/><rect x="616" y="106" width="14" height="14" rx="3" fill="#161b22"/><rect x="616" y="124" width="14" height="14" rx="3" fill="#161b22"/><rect x="616" y="142" width="14" height="14" rx="3" fill="#161b22"/><rect x="616" y="160" width="14" height="14" rx="3" fill="#161b22"/><rect x="634" y="178" width="14" height="14" rx="3" fill="#161b22"/><rect x="634" y="70" width="14" height="14" rx="3" fill="#161b22"/><rect x="634" y="88" width="14" height="14" rx="3" fill="#161b22"/><rect x="634" y="106" width="14" height="14" rx="3" fill="#161b22"/><rect x="634" y="124" width="14" height="14" rx="3" fill="#161b22"/><rect x="634" y="142" width="14" height="14" rx="3" fill="#161b22"/><rect x="634" y="160" width="14" height="14" rx="3" fill="#161b22"/><rect x="652" y="178" width="14" height="14" rx="3" fill="#161b22"/><rect x="652" y="70" width="14" height="14" rx="3" fill="#161b22"/><rect x="652" y="88" width="14" height="14" rx="3" fill="#161b22"/><rect x="652" y="106" width="14" height="14" rx="3" fill="#161b22"/><rect x="652" y="124" width="14" height="14" rx="3" fill="#0e4429"/><rect x="652" y="142" width="14" height="14" rx="3" fill="#161b22"/><rect x="652" y="160" width="14" height="14" rx="3" fill="#161b22"/><rect x="670" y="178" width="14" height="14" rx="3" fill="#161b22"/><rect x="670" y="70" width="14" height="14" rx="3" fill="#161b22"/><rect x="670" y="88" width="14" height="14" rx="3" fill="#161b22"/><rect x="670" y="106" width="14" height="14" rx="3" fill="#0e4429"/><rect x="670" y="124" width="14" height="14" rx="3" fill="#161b22"/><rect x="670" y="142" width="14" height="14" rx="3" fill="#161b22"/><rect x="670" y="160" width="14" height="14" rx="3" fill="#0e4429"/><rect x="688" y="178" width="14" height="14" rx="3" fill="#161b22"/><rect x="688" y="70" width="14" height="14" rx="3" fill="#161b22"/><rect x="688" y="88" width="14" height="14" rx="3" fill="#161b22"/><rect x="688" y="106" width="14" height="14" rx="3" fill="#0e4429"/><rect x="688" y="124" width="14" height="14" rx="3" fill="#161b22"/><rect x="688" y="142" width="14" height="14" rx="3" fill="#161b22"/><rect x="688" y="160" width="14" height="14" rx="3" fill="#161b22"/><rect x="706" y="178" width="14" height="14" rx="3" fill="#0e4429"/><rect x="706" y="70" width="14" height="14" rx="3" fill="#161b22"/><rect x="706" y="88" width="14" height="14" rx="3" fill="#161b22"/><rect x="706" y="106" width="14" height="14" rx="3" fill="#161b22"/><rect x="706" y="124" width="14" height="14" rx="3" fill="#0e4429"/><rect x="706" y="142" width="14" height="14" rx="3" fill="#0e4429"/><rect x="706" y="160" width="14" height="14" rx="3" fill="#0e4429"/><rect x="724" y="178" width="14" height="14" rx="3" fill="#0e4429"/><rect x="724" y="70" width="14" height="14" rx="3" fill="#161b22"/><rect x="724" y="88" width="14" height="14" rx="3" fill="#161b22"/><rect x="724" y="106" width="14" height="14" rx="3" fill="#161b22"/><rect x="724" y="124" width="14" height="14" rx="3" fill="#0e4429"/><rect x="724" y="142" width="14" height="14" rx="3" fill="#161b22"/><rect x="724" y="160" width="14" height="14" rx="3" fill="#161b22"/><rect x="742" y="178" width="14" height="14" rx="3" fill="#0e4429"/><rect x="742" y="70" width="14" height="14" rx="3" fill="#0e4429"/><rect x="742" y="88" width="14" height="14" rx="3" fill="#161b22"/><rect x="742" y="106" width="14" height="14" rx="3" fill="#161b22"/><rect x="742" y="124" width="14" height="14" rx="3" fill="#161b22"/><rect x="742" y="142" width="14" height="14" rx="3" fill="#161b22"/><rect x="742" y="160" width="14" height="14" rx="3" fill="#161b22"/><rect x="760" y="178" width="14" height="14" rx="3" fill="#161b22"/><rect x="760" y="70" width="14" height="14" rx="3" fill="#161b22"/><rect x="760" y="88" width="14" height="14" rx="3" fill="#161b22"/><rect x="760" y="106" width="14" height="14" rx="3" fill="#161b22"/><rect x="760" y="124" width="14" height="14" rx="3" fill="#161b22"/><rect x="760" y="142" width="14" height="14" rx="3" fill="#161b22"/><rect x="760" y="160" width="14" height="14" rx="3" fill="#161b22"/><rect x="778" y="178" width="14" height="14" rx="3" fill="#161b22"/><rect x="778" y="70" width="14" height="14" rx="3" fill="#161b22"/><rect x="778" y="88" width="14" height="14" rx="3" fill="#161b22"/><rect x="778" y="106" width="14" height="14" rx="3" fill="#161b22"/><rect x="778" y="124" width="14" height="14" rx="3" fill="#161b22"/><rect x="778" y="142" width="14" height="14" rx="3" fill="#161b22"/><rect x="778" y="160" width="14" height="14" rx="3" fill="#161b22"/><rect x="796" y="178" width="14" height="14" rx="3" fill="#161b22"/><rect x="796" y="70" width="14" height="14" rx="3" fill="#161b22"/><rect x="796" y="88" width="14" height="14" rx="3" fill="#161b22"/><rect x="796" y="106" width="14" height="14" rx="3" fill="#161b22"/><rect x="796" y="124" width="14" height="14" rx="3" fill="#161b22"/><rect x="796" y="142" width="14" height="14" rx="3" fill="#161b22"/><rect x="796" y="160" width="14" height="14" rx="3" fill="#161b22"/><rect x="814" y="178" width="14" height="14" rx="3" fill="#161b22"/><rect x="814" y="70" width="14" height="14" rx="3" fill="#161b22"/><rect x="814" y="88" width="14" height="14" rx="3" fill="#161b22"/><rect x="814" y="106" width="14" height="14" rx="3" fill="#161b22"/><rect x="814" y="124" width="14" height="14" rx="3" fill="#161b22"/><rect x="814" y="142" width="14" height="14" rx="3" fill="#161b22"/><rect x="814" y="160" width="14" height="14" rx="3" fill="#161b22"/><rect x="832" y="178" width="14" height="14" rx="3" fill="#161b22"/><rect x="832" y="70" width="14" height="14" rx="3" fill="#161b22"/><rect x="832" y="88" width="14" height="14" rx="3" fill="#161b22"/><rect x="832" y="106" width="14" height="14" rx="3" fill="#161b22"/><rect x="832" y="124" width="14" height="14" rx="3" fill="#161b22"/><rect x="832" y="142" width="14" height="14" rx="3" fill="#161b22"/><rect x="832" y="160" width="14" height="14" rx="3" fill="#161b22"/><rect x="850" y="178" width="14" height="14" rx="3" fill="#161b22"/><rect x="850" y="70" width="14" height="14" rx="3" fill="#161b22"/><rect x="850" y="88" width="14" height="14" rx="3" fill="#161b22"/><rect x="850" y="106" width="14" height="14" rx="3" fill="#161b22"/><rect x="850" y="124" width="14" height="14" rx="3" fill="#161b22"/><rect x="850" y="142" width="14" height="14" rx="3" fill="#0e4429"/><rect x="850" y="160" width="14" height="14" rx="3" fill="#161b22"/><rect x="868" y="178" width="14" height="14" rx="3" fill="#0e4429"/><rect x="868" y="70" width="14" height="14" rx="3" fill="#0e4429"/><rect x="868" y="88" width="14" height="14" rx="3" fill="#0e4429"/><rect x="868" y="106" width="14" height="14" rx="3" fill="#161b22"/><rect x="868" y="124" width="14" height="14" rx="3" fill="#161b22"/><rect x="868" y="142" width="14" height="14" rx="3" fill="#161b22"/><rect x="868" y="160" width="14" height="14" rx="3" fill="#161b22"/><rect x="886" y="178" width="14" height="14" rx="3" fill="#161b22"/><rect x="886" y="70" width="14" height="14" rx="3" fill="#161b22"/><rect x="886" y="88" width="14" height="14" rx="3" fill="#0e4429"/><rect x="886" y="106" width="14" height="14" rx="3" fill="#161b22"/><rect x="886" y="124" width="14" height="14" rx="3" fill="#161b22"/><rect x="886" y="142" width="14" height="14" rx="3" fill="#161b22"/><rect x="886" y="160" width="14" height="14" rx="3" fill="#161b22"/><rect x="904" y="178" width="14" height="14" rx="3" fill="#161b22"/><rect x="904" y="70" width="14" height="14" rx="3" fill="#161b22"/><rect x="904" y="88" width="14" height="14" rx="3" fill="#161b22"/><rect x="904" y="106" width="14" height="14" rx="3" fill="#161b22"/><rect x="904" y="124" width="14" height="14" rx="3" fill="#161b22"/><rect x="904" y="142" width="14" height="14" rx="3" fill="#161b22"/><rect x="904" y="160" width="14" height="14" rx="3" fill="#161b22"/><rect x="922" y="178" width="14" height="14" rx="3" fill="#161b22"/><rect x="922" y="70" width="14" height="14" rx="3" fill="#161b22"/><rect x="922" y="88" width="14" height="14" rx="3" fill="#0e4429"/><rect x="922" y="106" width="14" height="14" rx="3" fill="#006d32"/><rect x="922" y="124" width="14" height="14" rx="3" fill="#0e4429"/><rect x="922" y="142" width="14" height="14" rx="3" fill="#161b22"/><rect x="922" y="160" width="14" height="14" rx="3" fill="#0e4429"/><rect x="940" y="178" width="14" height="14" rx="3" fill="#0e4429"/><rect x="940" y="70" width="14" height="14" rx="3" fill="#0e4429"/><rect x="940" y="88" width="14" height="14" rx="3" fill="#0e4429"/><rect x="940" y="106" width="14" height="14" rx="3" fill="#0e4429"/><rect x="940" y="124" width="14" height="14" rx="3" fill="#161b22"/><rect x="940" y="142" width="14" height="14" rx="3" fill="#161b22"/><rect x="940" y="160" width="14" height="14" rx="3" fill="#26a641"/><rect x="958" y="178" width="14" height="14" rx="3" fill="#161b22"/><rect x="958" y="70" width="14" height="14" rx="3" fill="#161b22"/><rect x="958" y="88" width="14" height="14" rx="3" fill="#161b22"/><rect x="958" y="106" width="14" height="14" rx="3" fill="#161b22"/><rect x="958" y="124" width="14" height="14" rx="3" fill="#161b22"/><rect x="958" y="142" width="14" height="14" rx="3" fill="#161b22"/><rect x="958" y="160" width="14" height="14" rx="3" fill="#161b22"/><rect x="976" y="178" width="14" height="14" rx="3" fill="#161b22"/><rect x="976" y="70" width="14" height="14" rx="3" fill="#006d32"/><rect x="976" y="88" width="14" height="14" rx="3" fill="#39d353"/>
</svg>