<svg xmlns="http://www.w3.org/2000/svg" width="860" height="416" viewBox="0 0 860 416">
<style>text{font-family:'Segoe UI', system-ui, -apple-system, sans-serif}</style>
<rect width="860" height="416" rx="12" fill="#0d1117" stroke="#30363d"/>
<text x="20" y="24" font-size="15" font-weight="700" fill="#c0caf5">Langages utilisés</text>
<clipPath id="sc"><rect x="20" y="36" width="820" height="10" rx="5"/></clipPath><g clip-path="url(#sc)"><rect x="20" y="36" width="820" height="10" rx="5" fill="#30363d"/><rect x="20.0" y="36" width="547.4" height="10" fill="#3178c6"/><rect x="567.4" y="36" width="179.8" height="10" fill="#3572A5"/><rect x="747.2" y="36" width="44.0" height="10" fill="#DA5B0B"/><rect x="791.2" y="36" width="16.2" height="10" fill="#e34c26"/><rect x="807.3" y="36" width="11.9" height="10" fill="#663399"/><rect x="819.3" y="36" width="7.0" height="10" fill="#f1e05a"/><rect x="826.2" y="36" width="2.9" height="10" fill="#4F5D95"/><rect x="829.2" y="36" width="2.8" height="10" fill="#89e051"/><rect x="832.0" y="36" width="1.9" height="10" fill="#012456"/><rect x="833.9" y="36" width="1.5" height="10" fill="#555555"/></g>
<circle cx="25" cy="69" r="5.5" fill="#3178c6"/><text x="38" y="74" font-size="13" fill="#c0caf5">TypeScript</text><text x="840" y="74" font-size="12" fill="#565f89" text-anchor="end">66.8%</text><rect x="20" y="82" width="820" height="6" rx="3" fill="#30363d"/><rect x="20" y="82" width="547.4" height="6" rx="3" fill="#3178c6" opacity="0.85"/><circle cx="25" cy="103" r="5.5" fill="#3572A5"/><text x="38" y="108" font-size="13" fill="#c0caf5">Python</text><text x="840" y="108" font-size="12" fill="#565f89" text-anchor="end">21.9%</text><rect x="20" y="116" width="820" height="6" rx="3" fill="#30363d"/><rect x="20" y="116" width="179.8" height="6" rx="3" fill="#3572A5" opacity="0.85"/><circle cx="25" cy="137" r="5.5" fill="#DA5B0B"/><text x="38" y="142" font-size="13" fill="#c0caf5">Jupyter Notebook</text><text x="840" y="142" font-size="12" fill="#565f89" text-anchor="end">5.4%</text><rect x="20" y="150" width="820" height="6" rx="3" fill="#30363d"/><rect x="20" y="150" width="44.0" height="6" rx="3" fill="#DA5B0B" opacity="0.85"/><circle cx="25" cy="171" r="5.5" fill="#e34c26"/><text x="38" y="176" font-size="13" fill="#c0caf5">HTML</text><text x="840" y="176" font-size="12" fill="#565f89" text-anchor="end">2.0%</text><rect x="20" y="184" width="820" height="6" rx="3" fill="#30363d"/><rect x="20" y="184" width="16.2" height="6" rx="3" fill="#e34c26" opacity="0.85"/><circle cx="25" cy="205" r="5.5" fill="#663399"/><text x="38" y="210" font-size="13" fill="#c0caf5">CSS</text><text x="840" y="210" font-size="12" fill="#565f89" text-anchor="end">1.5%</text><rect x="20" y="218" width="820" height="6" rx="3" fill="#30363d"/><rect x="20" y="218" width="11.9" height="6" rx="3" fill="#663399" opacity="0.85"/><circle cx="25" cy="239" r="5.5" fill="#f1e05a"/><text x="38" y="244" font-size="13" fill="#c0caf5">JavaScript</text><text x="840" y="244" font-size="12" fill="#565f89" text-anchor="end">0.9%</text><rect x="20" y="252" width="820" height="6" rx="3" fill="#30363d"/><rect x="20" y="252" width="7.0" height="6" rx="3" fill="#f1e05a" opacity="0.85"/><circle cx="25" cy="273" r="5.5" fill="#4F5D95"/><text x="38" y="278" font-size="13" fill="#c0caf5">PHP</text><text x="840" y="278" font-size="12" fill="#565f89" text-anchor="end">0.4%</text><rect x="20" y="286" width="820" height="6" rx="3" fill="#30363d"/><rect x="20" y="286" width="2.9" height="6" rx="3" fill="#4F5D95" opacity="0.85"/><circle cx="25" cy="307" r="5.5" fill="#89e051"/><text x="38" y="312" font-size="13" fill="#c0caf5">Shell</text><text x="840" y="312" font-size="12" fill="#565f89" text-anchor="end">0.3%</text><rect x="20" y="320" width="820" height="6" rx="3" fill="#30363d"/><rect x="20" y="320" width="2.8" height="6" rx="3" fill="#89e051" opacity="0.85"/><circle cx="25" cy="341" r="5.5" fill="#012456"/><text x="38" y="346" font-size="13" fill="#c0caf5">PowerShell</text><text x="840" y="346" font-size="12" fill="#565f89" text-anchor="end">0.2%</text><rect x="20" y="354" width="820" height="6" rx="3" fill="#30363d"/><rect x="20" y="354" width="1.9" height="6" rx="3" fill="#012456" opacity="0.85"/><circle cx="25" cy="375" r="5.5" fill="#555555"/><text x="38" y="380" font-size="13" fill="#c0caf5">C</text><text x="840" y="380" font-size="12" fill="#565f89" text-anchor="end">0.2%</text><rect x="20" y="388" width="820" height="6" rx="3" fill="#30363d"/><rect x="20" y="388" width="1.5" height="6" rx="3" fill="#555555" opacity="0.85"/>
</svg>